<mxfile host="app.diagrams.net" agent="Mozilla/5.0 (X11; Linux x86_64) AppleWebKit/537.36 (KHTML, like Gecko) Chrome/128.0.0.0 Safari/537.36" version="24.7.8">
  <diagram name="Page-1" id="lcg7GcMG5vurtqeYwImu">
    <mxGraphModel dx="1626" dy="932" grid="1" gridSize="10" guides="1" tooltips="1" connect="1" arrows="1" fold="1" page="1" pageScale="1" pageWidth="850" pageHeight="1100" math="0" shadow="0">
      <root>
        <mxCell id="0" />
        <mxCell id="1" parent="0" />
        <mxCell id="fSOtJAzHmyvu8JyNs4eT-2" value="" style="rounded=1;whiteSpace=wrap;html=1;" parent="1" vertex="1">
          <mxGeometry x="30" y="35" width="130" height="250" as="geometry" />
        </mxCell>
        <mxCell id="fSOtJAzHmyvu8JyNs4eT-3" value="&lt;font color=&quot;#0066cc&quot; face=&quot;Courier New&quot;&gt;Home&amp;nbsp;page&lt;/font&gt;" style="text;html=1;align=center;verticalAlign=middle;resizable=0;points=[];autosize=1;strokeColor=none;fillColor=none;fontFamily=Courier New;labelBackgroundColor=none;" parent="1" vertex="1">
          <mxGeometry x="30" y="5" width="90" height="30" as="geometry" />
        </mxCell>
        <mxCell id="fSOtJAzHmyvu8JyNs4eT-9" value="Latest Articles&lt;div&gt;&lt;br&gt;&lt;/div&gt;&lt;div&gt;&lt;br&gt;&lt;/div&gt;&lt;div&gt;&lt;br&gt;&lt;/div&gt;&lt;div&gt;&lt;br&gt;&lt;/div&gt;&lt;div&gt;&lt;br&gt;&lt;/div&gt;&lt;div&gt;&lt;br&gt;&lt;/div&gt;&lt;div&gt;&lt;br&gt;&lt;/div&gt;&lt;div&gt;&lt;br&gt;&lt;/div&gt;&lt;div&gt;&lt;br&gt;&lt;/div&gt;&lt;div&gt;&lt;br&gt;&lt;/div&gt;&lt;div&gt;&lt;br&gt;&lt;/div&gt;" style="rounded=0;whiteSpace=wrap;html=1;fillColor=#eeeeee;strokeColor=none;" parent="1" vertex="1">
          <mxGeometry x="37.5" y="75" width="115" height="190" as="geometry" />
        </mxCell>
        <mxCell id="fSOtJAzHmyvu8JyNs4eT-12" value="" style="endArrow=classic;html=1;rounded=0;exitX=1;exitY=0.75;exitDx=0;exitDy=0;entryX=0;entryY=0;entryDx=0;entryDy=0;" parent="1" source="fSOtJAzHmyvu8JyNs4eT-7" edge="1" target="fSOtJAzHmyvu8JyNs4eT-14">
          <mxGeometry width="50" height="50" relative="1" as="geometry">
            <mxPoint x="330" y="255" as="sourcePoint" />
            <mxPoint x="250" y="55" as="targetPoint" />
          </mxGeometry>
        </mxCell>
        <mxCell id="QgCz3kuBdeEGVtZZMiBr-15" style="edgeStyle=orthogonalEdgeStyle;rounded=0;orthogonalLoop=1;jettySize=auto;html=1;exitX=1;exitY=1;exitDx=0;exitDy=0;entryX=0.01;entryY=0.725;entryDx=0;entryDy=0;entryPerimeter=0;" edge="1" parent="1" source="fSOtJAzHmyvu8JyNs4eT-14" target="QgCz3kuBdeEGVtZZMiBr-6">
          <mxGeometry relative="1" as="geometry">
            <mxPoint x="430" y="140" as="targetPoint" />
            <Array as="points">
              <mxPoint x="350" y="62" />
            </Array>
          </mxGeometry>
        </mxCell>
        <mxCell id="fSOtJAzHmyvu8JyNs4eT-18" value="" style="endArrow=classic;html=1;rounded=0;entryX=0;entryY=0.5;entryDx=0;entryDy=0;exitX=1;exitY=1;exitDx=0;exitDy=0;" parent="1" source="fSOtJAzHmyvu8JyNs4eT-7" target="fSOtJAzHmyvu8JyNs4eT-15" edge="1">
          <mxGeometry width="50" height="50" relative="1" as="geometry">
            <mxPoint x="210" y="90" as="sourcePoint" />
            <mxPoint x="380" y="200" as="targetPoint" />
          </mxGeometry>
        </mxCell>
        <mxCell id="QgCz3kuBdeEGVtZZMiBr-5" value="" style="rounded=1;whiteSpace=wrap;html=1;" vertex="1" parent="1">
          <mxGeometry x="442.5" y="70" width="130" height="250" as="geometry" />
        </mxCell>
        <mxCell id="QgCz3kuBdeEGVtZZMiBr-6" value="&lt;font color=&quot;#0066cc&quot; face=&quot;Courier New&quot;&gt;Saved articles&lt;/font&gt;" style="text;html=1;align=center;verticalAlign=middle;resizable=0;points=[];autosize=1;strokeColor=none;fillColor=none;fontFamily=Courier New;labelBackgroundColor=none;" vertex="1" parent="1">
          <mxGeometry x="448" y="30" width="100" height="30" as="geometry" />
        </mxCell>
        <mxCell id="QgCz3kuBdeEGVtZZMiBr-10" value="" style="rounded=1;whiteSpace=wrap;html=1;" vertex="1" parent="1">
          <mxGeometry x="440" y="440" width="130" height="250" as="geometry" />
        </mxCell>
        <mxCell id="QgCz3kuBdeEGVtZZMiBr-11" value="&lt;font color=&quot;#0066cc&quot; face=&quot;Courier New&quot;&gt;Followed feeds&lt;/font&gt;" style="text;html=1;align=center;verticalAlign=middle;resizable=0;points=[];autosize=1;strokeColor=none;fillColor=none;fontFamily=Courier New;labelBackgroundColor=none;" vertex="1" parent="1">
          <mxGeometry x="437.5" y="401" width="110" height="30" as="geometry" />
        </mxCell>
        <mxCell id="QgCz3kuBdeEGVtZZMiBr-16" style="edgeStyle=orthogonalEdgeStyle;rounded=0;orthogonalLoop=1;jettySize=auto;html=1;exitX=1;exitY=1;exitDx=0;exitDy=0;entryX=0.005;entryY=0.667;entryDx=0;entryDy=0;entryPerimeter=0;" edge="1" parent="1" source="fSOtJAzHmyvu8JyNs4eT-15" target="QgCz3kuBdeEGVtZZMiBr-11">
          <mxGeometry relative="1" as="geometry" />
        </mxCell>
        <mxCell id="QgCz3kuBdeEGVtZZMiBr-19" value="&lt;div&gt;Saved Articles&lt;/div&gt;&lt;div&gt;&lt;br&gt;&lt;/div&gt;&lt;div&gt;&lt;br&gt;&lt;/div&gt;&lt;div&gt;&lt;br&gt;&lt;/div&gt;&lt;div&gt;&lt;br&gt;&lt;/div&gt;&lt;div&gt;&lt;br&gt;&lt;/div&gt;&lt;div&gt;&lt;br&gt;&lt;/div&gt;&lt;div&gt;&lt;br&gt;&lt;/div&gt;&lt;div&gt;&lt;br&gt;&lt;/div&gt;&lt;div&gt;&lt;br&gt;&lt;/div&gt;&lt;div&gt;&lt;br&gt;&lt;/div&gt;&lt;div&gt;&lt;br&gt;&lt;/div&gt;" style="rounded=0;whiteSpace=wrap;html=1;fillColor=#eeeeee;strokeColor=none;" vertex="1" parent="1">
          <mxGeometry x="450" y="112" width="115" height="190" as="geometry" />
        </mxCell>
        <mxCell id="QgCz3kuBdeEGVtZZMiBr-22" value="&lt;div&gt;Followed feeds&lt;/div&gt;&lt;div&gt;&lt;br&gt;&lt;/div&gt;&lt;div&gt;&lt;br&gt;&lt;/div&gt;&lt;div&gt;&lt;br&gt;&lt;/div&gt;&lt;div&gt;&lt;br&gt;&lt;/div&gt;&lt;div&gt;&lt;br&gt;&lt;/div&gt;&lt;div&gt;&lt;br&gt;&lt;/div&gt;&lt;div&gt;&lt;br&gt;&lt;/div&gt;&lt;div&gt;&lt;br&gt;&lt;/div&gt;&lt;div&gt;&lt;br&gt;&lt;/div&gt;&lt;div&gt;&lt;br&gt;&lt;/div&gt;&lt;div&gt;&lt;br&gt;&lt;/div&gt;" style="rounded=0;whiteSpace=wrap;html=1;fillColor=#eeeeee;strokeColor=none;" vertex="1" parent="1">
          <mxGeometry x="448" y="480" width="115" height="195" as="geometry" />
        </mxCell>
        <mxCell id="QgCz3kuBdeEGVtZZMiBr-63" style="edgeStyle=orthogonalEdgeStyle;rounded=0;orthogonalLoop=1;jettySize=auto;html=1;exitX=1;exitY=0.5;exitDx=0;exitDy=0;" edge="1" parent="1" source="QgCz3kuBdeEGVtZZMiBr-36">
          <mxGeometry relative="1" as="geometry">
            <mxPoint x="640" y="197.28571428571433" as="targetPoint" />
          </mxGeometry>
        </mxCell>
        <mxCell id="QgCz3kuBdeEGVtZZMiBr-38" value="&lt;h2&gt;+&lt;/h2&gt;" style="ellipse;whiteSpace=wrap;html=1;aspect=fixed;fillColor=#d5e8d4;strokeColor=none;gradientColor=#97d077;" vertex="1" parent="1">
          <mxGeometry x="537.5" y="650" width="20" height="20" as="geometry" />
        </mxCell>
        <mxCell id="QgCz3kuBdeEGVtZZMiBr-40" value="" style="endArrow=classic;html=1;rounded=0;exitX=0.5;exitY=1;exitDx=0;exitDy=0;" edge="1" parent="1" source="QgCz3kuBdeEGVtZZMiBr-38">
          <mxGeometry relative="1" as="geometry">
            <mxPoint x="420" y="570" as="sourcePoint" />
            <mxPoint x="690" y="670" as="targetPoint" />
          </mxGeometry>
        </mxCell>
        <mxCell id="QgCz3kuBdeEGVtZZMiBr-41" value="AddNewFeed" style="edgeLabel;resizable=0;html=1;;align=center;verticalAlign=middle;" connectable="0" vertex="1" parent="QgCz3kuBdeEGVtZZMiBr-40">
          <mxGeometry relative="1" as="geometry" />
        </mxCell>
        <mxCell id="QgCz3kuBdeEGVtZZMiBr-47" value="" style="rounded=1;whiteSpace=wrap;html=1;" vertex="1" parent="1">
          <mxGeometry x="22.5" y="390" width="130" height="250" as="geometry" />
        </mxCell>
        <mxCell id="QgCz3kuBdeEGVtZZMiBr-48" value="&lt;font color=&quot;#0066cc&quot; face=&quot;Courier New&quot;&gt;Article detail&lt;/font&gt;" style="text;html=1;align=center;verticalAlign=middle;resizable=0;points=[];autosize=1;strokeColor=none;fillColor=none;fontFamily=Courier New;labelBackgroundColor=none;" vertex="1" parent="1">
          <mxGeometry x="22.5" y="360" width="90" height="30" as="geometry" />
        </mxCell>
        <mxCell id="QgCz3kuBdeEGVtZZMiBr-54" value="&lt;font color=&quot;#660033&quot;&gt;ArticleDetail&lt;/font&gt;&lt;pre style=&quot;text-align: left; font-size: 11px;&quot;&gt;Title&lt;br&gt;author, date&lt;br&gt;&lt;br&gt;&lt;/pre&gt;&lt;pre style=&quot;text-align: left; font-size: 11px;&quot;&gt;[img]&lt;br&gt;&lt;br&gt;&lt;/pre&gt;&lt;pre style=&quot;text-align: left; font-size: 11px;&quot;&gt;content&lt;br&gt;&lt;br&gt;&lt;/pre&gt;&lt;pre style=&quot;text-align: left; font-size: 11px;&quot;&gt;keywords&lt;/pre&gt;" style="rounded=1;whiteSpace=wrap;html=1;fillColor=#e1d5e7;strokeColor=#9673a6;" vertex="1" parent="1">
          <mxGeometry x="32" y="431" width="110" height="193" as="geometry" />
        </mxCell>
        <mxCell id="QgCz3kuBdeEGVtZZMiBr-55" value="&lt;pre&gt;&lt;font style=&quot;font-size: 10px;&quot;&gt;searchbar&lt;/font&gt;&lt;/pre&gt;" style="rounded=1;whiteSpace=wrap;html=1;align=left;fillColor=#d5e8d4;gradientColor=#97d077;strokeColor=none;" vertex="1" parent="1">
          <mxGeometry x="453" y="510" width="105" height="20" as="geometry" />
        </mxCell>
        <mxCell id="QgCz3kuBdeEGVtZZMiBr-61" value="" style="endArrow=classic;html=1;rounded=0;exitX=0.5;exitY=1;exitDx=0;exitDy=0;" edge="1" parent="1" source="QgCz3kuBdeEGVtZZMiBr-34" target="QgCz3kuBdeEGVtZZMiBr-48">
          <mxGeometry relative="1" as="geometry">
            <mxPoint x="110" y="330" as="sourcePoint" />
            <mxPoint x="210" y="330" as="targetPoint" />
          </mxGeometry>
        </mxCell>
        <mxCell id="QgCz3kuBdeEGVtZZMiBr-62" value="links to&lt;div&gt;&lt;br&gt;&lt;/div&gt;" style="edgeLabel;resizable=0;html=1;;align=center;verticalAlign=middle;" connectable="0" vertex="1" parent="QgCz3kuBdeEGVtZZMiBr-61">
          <mxGeometry relative="1" as="geometry" />
        </mxCell>
        <mxCell id="QgCz3kuBdeEGVtZZMiBr-64" value="&lt;font color=&quot;#660033&quot;&gt;Article Preview&lt;/font&gt;&lt;pre&gt;&lt;pre style=&quot;text-align: left;&quot;&gt;&lt;pre&gt;&lt;span style=&quot;background-color: initial; font-family: Helvetica; white-space: normal;&quot;&gt;Title&lt;br&gt;&lt;/span&gt;&lt;span style=&quot;background-color: initial; font-family: Helvetica; white-space: normal;&quot;&gt;Author&lt;br&gt;&lt;/span&gt;&lt;span style=&quot;background-color: initial; font-family: Helvetica; white-space: normal;&quot;&gt;Date&lt;/span&gt;&lt;/pre&gt;&lt;/pre&gt;&lt;/pre&gt;" style="rounded=1;whiteSpace=wrap;html=1;fillColor=#e1d5e7;strokeColor=#9673a6;" vertex="1" parent="1">
          <mxGeometry x="640" y="150" width="110" height="100" as="geometry" />
        </mxCell>
        <mxCell id="QgCz3kuBdeEGVtZZMiBr-70" value="" style="group" vertex="1" connectable="0" parent="1">
          <mxGeometry x="241" y="45" width="116" height="116" as="geometry" />
        </mxCell>
        <mxCell id="QgCz3kuBdeEGVtZZMiBr-66" value="&lt;h3&gt;Menu&lt;/h3&gt;&lt;div&gt;&lt;br&gt;&lt;/div&gt;&lt;div&gt;&lt;br&gt;&lt;/div&gt;&lt;div&gt;&lt;br&gt;&lt;/div&gt;&lt;div&gt;&lt;br&gt;&lt;/div&gt;&lt;div&gt;&lt;br&gt;&lt;/div&gt;&lt;div&gt;&lt;br&gt;&lt;/div&gt;" style="whiteSpace=wrap;html=1;aspect=fixed;fillColor=#d5e8d4;strokeColor=#82b366;" vertex="1" parent="QgCz3kuBdeEGVtZZMiBr-70">
          <mxGeometry width="116" height="116" as="geometry" />
        </mxCell>
        <mxCell id="fSOtJAzHmyvu8JyNs4eT-14" value="Saved articles" style="rounded=0;whiteSpace=wrap;html=1;strokeColor=#82b366;fillColor=#d5e8d4;strokeWidth=1;gradientColor=#97d077;" parent="QgCz3kuBdeEGVtZZMiBr-70" vertex="1">
          <mxGeometry x="9" y="35" width="100" height="20" as="geometry" />
        </mxCell>
        <mxCell id="fSOtJAzHmyvu8JyNs4eT-15" value="Followed Feeds" style="rounded=0;whiteSpace=wrap;html=1;strokeColor=#82b366;fillColor=#d5e8d4;strokeWidth=1;gradientColor=#97d077;" parent="QgCz3kuBdeEGVtZZMiBr-70" vertex="1">
          <mxGeometry x="9" y="70" width="100" height="20" as="geometry" />
        </mxCell>
        <mxCell id="QgCz3kuBdeEGVtZZMiBr-71" value="" style="group" vertex="1" connectable="0" parent="1">
          <mxGeometry x="45" y="101" width="100" height="159" as="geometry" />
        </mxCell>
        <mxCell id="QgCz3kuBdeEGVtZZMiBr-34" value="&lt;p&gt;&lt;font color=&quot;#660033&quot;&gt;ArticleList&lt;/font&gt;&lt;br&gt;&lt;br&gt;&lt;br&gt;&lt;br&gt;&lt;br&gt;&lt;br&gt;&lt;br&gt;&lt;/p&gt;&lt;div&gt;&lt;br&gt;&lt;/div&gt;&lt;div&gt;&lt;br&gt;&lt;/div&gt;" style="rounded=1;whiteSpace=wrap;html=1;fillColor=#e1d5e7;strokeColor=#9673a6;" vertex="1" parent="QgCz3kuBdeEGVtZZMiBr-71">
          <mxGeometry width="100" height="159" as="geometry" />
        </mxCell>
        <mxCell id="fSOtJAzHmyvu8JyNs4eT-10" value="&lt;font color=&quot;#660033&quot;&gt;Article Preview&lt;/font&gt;" style="rounded=1;whiteSpace=wrap;html=1;fillColor=#e1d5e7;strokeColor=#9673a6;" parent="QgCz3kuBdeEGVtZZMiBr-71" vertex="1">
          <mxGeometry x="10.5" y="42.5" width="76.5" height="49" as="geometry" />
        </mxCell>
        <mxCell id="fSOtJAzHmyvu8JyNs4eT-11" value="Article Preview" style="rounded=1;whiteSpace=wrap;html=1;fillColor=#d5e8d4;strokeColor=none;gradientColor=#97d077;" parent="QgCz3kuBdeEGVtZZMiBr-71" vertex="1">
          <mxGeometry x="10.5" y="99.5" width="76.5" height="47" as="geometry" />
        </mxCell>
        <mxCell id="QgCz3kuBdeEGVtZZMiBr-72" value="" style="group" vertex="1" connectable="0" parent="1">
          <mxGeometry x="457.5" y="140" width="100" height="149" as="geometry" />
        </mxCell>
        <mxCell id="QgCz3kuBdeEGVtZZMiBr-35" value="&lt;p&gt;&lt;font color=&quot;#660033&quot;&gt;ArticleList&lt;/font&gt;&lt;br&gt;&lt;br&gt;&lt;br&gt;&lt;br&gt;&lt;br&gt;&lt;br&gt;&lt;br&gt;&lt;/p&gt;&lt;div&gt;&lt;br&gt;&lt;/div&gt;&lt;div&gt;&lt;br&gt;&lt;/div&gt;" style="rounded=1;whiteSpace=wrap;html=1;fillColor=#e1d5e7;strokeColor=#9673a6;" vertex="1" parent="QgCz3kuBdeEGVtZZMiBr-72">
          <mxGeometry width="100" height="149" as="geometry" />
        </mxCell>
        <mxCell id="QgCz3kuBdeEGVtZZMiBr-36" value="&lt;font color=&quot;#660033&quot;&gt;Article Preview&lt;/font&gt;" style="rounded=1;whiteSpace=wrap;html=1;fillColor=#e1d5e7;strokeColor=#9673a6;" vertex="1" parent="QgCz3kuBdeEGVtZZMiBr-72">
          <mxGeometry x="10.5" y="32.5" width="76.5" height="49" as="geometry" />
        </mxCell>
        <mxCell id="QgCz3kuBdeEGVtZZMiBr-73" value="" style="group" vertex="1" connectable="0" parent="1">
          <mxGeometry x="30" y="35" width="128.56999999999994" height="30.75" as="geometry" />
        </mxCell>
        <mxCell id="fSOtJAzHmyvu8JyNs4eT-4" value="" style="endArrow=none;html=1;rounded=0;exitX=0.002;exitY=0.14;exitDx=0;exitDy=0;exitPerimeter=0;entryX=0.989;entryY=0.143;entryDx=0;entryDy=0;entryPerimeter=0;" parent="QgCz3kuBdeEGVtZZMiBr-73" edge="1">
          <mxGeometry width="50" height="50" relative="1" as="geometry">
            <mxPoint x="0.2599999999999909" y="30" as="sourcePoint" />
            <mxPoint x="128.56999999999994" y="30.75" as="targetPoint" />
          </mxGeometry>
        </mxCell>
        <mxCell id="fSOtJAzHmyvu8JyNs4eT-5" value="&lt;font&gt;Readr&lt;/font&gt;" style="text;html=1;align=center;verticalAlign=middle;resizable=0;points=[];autosize=1;strokeColor=none;fillColor=none;fontColor=#00FFFF;" parent="QgCz3kuBdeEGVtZZMiBr-73" vertex="1">
          <mxGeometry width="60" height="30" as="geometry" />
        </mxCell>
        <mxCell id="fSOtJAzHmyvu8JyNs4eT-7" value="Menu" style="rounded=0;whiteSpace=wrap;html=1;fillColor=#d5e8d4;strokeColor=none;gradientColor=#97d077;" parent="QgCz3kuBdeEGVtZZMiBr-73" vertex="1">
          <mxGeometry x="80" y="5" width="40" height="20" as="geometry" />
        </mxCell>
        <mxCell id="QgCz3kuBdeEGVtZZMiBr-74" value="" style="group" vertex="1" connectable="0" parent="1">
          <mxGeometry x="442.5" y="70" width="128.30999999999995" height="30.75" as="geometry" />
        </mxCell>
        <mxCell id="QgCz3kuBdeEGVtZZMiBr-7" value="&lt;font&gt;Readr&lt;/font&gt;" style="text;html=1;align=center;verticalAlign=middle;resizable=0;points=[];autosize=1;strokeColor=none;fillColor=none;fontColor=#00FFFF;" vertex="1" parent="QgCz3kuBdeEGVtZZMiBr-74">
          <mxGeometry width="60" height="30" as="geometry" />
        </mxCell>
        <mxCell id="QgCz3kuBdeEGVtZZMiBr-8" value="Menu" style="rounded=0;whiteSpace=wrap;html=1;fillColor=#d5e8d4;strokeColor=none;gradientColor=#97d077;" vertex="1" parent="QgCz3kuBdeEGVtZZMiBr-74">
          <mxGeometry x="80" y="5" width="40" height="20" as="geometry" />
        </mxCell>
        <mxCell id="QgCz3kuBdeEGVtZZMiBr-9" value="" style="endArrow=none;html=1;rounded=0;exitX=0.002;exitY=0.14;exitDx=0;exitDy=0;exitPerimeter=0;entryX=0.989;entryY=0.143;entryDx=0;entryDy=0;entryPerimeter=0;" edge="1" parent="QgCz3kuBdeEGVtZZMiBr-74">
          <mxGeometry width="50" height="50" relative="1" as="geometry">
            <mxPoint y="30" as="sourcePoint" />
            <mxPoint x="128.30999999999995" y="30.75" as="targetPoint" />
          </mxGeometry>
        </mxCell>
        <mxCell id="QgCz3kuBdeEGVtZZMiBr-77" value="" style="group" vertex="1" connectable="0" parent="1">
          <mxGeometry x="700" y="640" width="115" height="110" as="geometry" />
        </mxCell>
        <mxCell id="QgCz3kuBdeEGVtZZMiBr-43" value="&lt;h3&gt;Add new feed&lt;/h3&gt;&lt;pre&gt;&lt;div style=&quot;text-align: left;&quot;&gt;&lt;span style=&quot;color: rgba(0, 0, 0, 0); font-size: 0px; white-space-collapse: collapse;&quot;&gt;%3CmxGraphModel%3E%3Croot%3E%3CmxCell%20id%3D%220%22%2F%3E%3CmxCell%20id%3D%221%22%20parent%3D%220%22%2F%3E%3CmxCell%20id%3D%222%22%20value%3D%22%26lt%3Bpre%26gt%3B%26lt%3Bfont%20style%3D%26quot%3Bfont-size%3A%2010px%3B%26quot%3B%26gt%3Bsearchbar%26lt%3B%2Ffont%26gt%3B%26lt%3B%2Fpre%26gt%3B%22%20style%3D%22rounded%3D1%3BwhiteSpace%3Dwrap%3Bhtml%3D1%3Balign%3Dleft%3BfillColor%3D%23d5e8d4%3BgradientColor%3D%2397d077%3BstrokeColor%3Dnone%3B%22%20vertex%3D%221%22%20parent%3D%221%22%3E%3CmxGeometry%20x%3D%22453%22%20y%3D%22510%22%20width%3D%22105%22%20height%3D%2220%22%20as%3D%22geometry%22%2F%3E%3C%2FmxCell%3E%3C%2Froot%3E%3C%2FmxGraphModel%3E&lt;/span&gt;&lt;br&gt;&lt;/div&gt;&lt;div style=&quot;text-align: left;&quot;&gt;&lt;span style=&quot;background-color: initial; font-family: Helvetica; white-space: normal;&quot;&gt;&lt;br&gt;&lt;/span&gt;&lt;/div&gt;&lt;div style=&quot;text-align: left;&quot;&gt;&lt;span style=&quot;background-color: initial; font-family: Helvetica; white-space: normal;&quot;&gt;&lt;br&gt;&lt;/span&gt;&lt;/div&gt;&lt;/pre&gt;&lt;div&gt;&lt;br&gt;&lt;/div&gt;" style="whiteSpace=wrap;html=1;aspect=fixed;fillColor=#d5e8d4;strokeColor=#82b366;" vertex="1" parent="QgCz3kuBdeEGVtZZMiBr-77">
          <mxGeometry width="110" height="110" as="geometry" />
        </mxCell>
        <mxCell id="QgCz3kuBdeEGVtZZMiBr-44" value="add" style="rounded=1;whiteSpace=wrap;html=1;fillColor=#d5e8d4;gradientColor=#97d077;strokeColor=none;" vertex="1" parent="QgCz3kuBdeEGVtZZMiBr-77">
          <mxGeometry x="72.5" y="90" width="37.5" height="20" as="geometry" />
        </mxCell>
        <mxCell id="QgCz3kuBdeEGVtZZMiBr-45" value="cancel" style="rounded=1;whiteSpace=wrap;html=1;fillColor=#d5e8d4;gradientColor=#97d077;strokeColor=none;" vertex="1" parent="QgCz3kuBdeEGVtZZMiBr-77">
          <mxGeometry y="90" width="50" height="20" as="geometry" />
        </mxCell>
        <mxCell id="QgCz3kuBdeEGVtZZMiBr-98" value="&lt;pre&gt;&lt;font style=&quot;font-size: 10px;&quot;&gt;feed name&lt;/font&gt;&lt;/pre&gt;" style="rounded=1;whiteSpace=wrap;html=1;align=left;fillColor=#d5e8d4;gradientColor=#97d077;strokeColor=none;" vertex="1" parent="QgCz3kuBdeEGVtZZMiBr-77">
          <mxGeometry x="5" y="36" width="95" height="12.5" as="geometry" />
        </mxCell>
        <mxCell id="QgCz3kuBdeEGVtZZMiBr-99" value="&lt;pre&gt;&lt;font style=&quot;font-size: 10px;&quot;&gt;feed url&lt;/font&gt;&lt;/pre&gt;" style="rounded=1;whiteSpace=wrap;html=1;align=left;fillColor=#d5e8d4;gradientColor=#97d077;strokeColor=none;" vertex="1" parent="QgCz3kuBdeEGVtZZMiBr-77">
          <mxGeometry x="5" y="57" width="95" height="17.5" as="geometry" />
        </mxCell>
        <mxCell id="QgCz3kuBdeEGVtZZMiBr-78" value="" style="group" vertex="1" connectable="0" parent="1">
          <mxGeometry x="455" y="540" width="95" height="120" as="geometry" />
        </mxCell>
        <mxCell id="QgCz3kuBdeEGVtZZMiBr-32" value="&lt;font color=&quot;#660033&quot;&gt;FeedList&lt;/font&gt;&lt;div&gt;&lt;font color=&quot;#660033&quot;&gt;&lt;br&gt;&lt;/font&gt;&lt;/div&gt;&lt;div&gt;&lt;font color=&quot;#660033&quot;&gt;&lt;br&gt;&lt;/font&gt;&lt;/div&gt;&lt;div&gt;&lt;font color=&quot;#660033&quot;&gt;&lt;br&gt;&lt;/font&gt;&lt;/div&gt;&lt;div&gt;&lt;font color=&quot;#660033&quot;&gt;&lt;br&gt;&lt;/font&gt;&lt;/div&gt;&lt;div&gt;&lt;font color=&quot;#660033&quot;&gt;&lt;br&gt;&lt;/font&gt;&lt;/div&gt;&lt;div&gt;&lt;font color=&quot;#660033&quot;&gt;&lt;br&gt;&lt;/font&gt;&lt;/div&gt;&lt;div&gt;&lt;br&gt;&lt;/div&gt;" style="rounded=1;whiteSpace=wrap;html=1;fillColor=#e1d5e7;strokeColor=#9673a6;" vertex="1" parent="QgCz3kuBdeEGVtZZMiBr-78">
          <mxGeometry width="95" height="120" as="geometry" />
        </mxCell>
        <mxCell id="QgCz3kuBdeEGVtZZMiBr-23" value="" style="shape=table;startSize=0;container=1;collapsible=0;childLayout=tableLayout;fontSize=11;fillColor=none;strokeColor=none;" vertex="1" parent="QgCz3kuBdeEGVtZZMiBr-78">
          <mxGeometry x="2.5" y="20" width="60" height="90" as="geometry" />
        </mxCell>
        <mxCell id="QgCz3kuBdeEGVtZZMiBr-24" value="" style="shape=tableRow;horizontal=0;startSize=0;swimlaneHead=0;swimlaneBody=0;strokeColor=inherit;top=0;left=0;bottom=0;right=0;collapsible=0;dropTarget=0;fillColor=none;points=[[0,0.5],[1,0.5]];portConstraint=eastwest;fontSize=16;" vertex="1" parent="QgCz3kuBdeEGVtZZMiBr-23">
          <mxGeometry width="60" height="23" as="geometry" />
        </mxCell>
        <mxCell id="QgCz3kuBdeEGVtZZMiBr-25" value="Feed 1" style="shape=partialRectangle;html=1;whiteSpace=wrap;connectable=0;strokeColor=inherit;overflow=hidden;fillColor=none;top=0;left=0;bottom=0;right=0;pointerEvents=1;fontSize=12;align=left;spacingLeft=5;" vertex="1" parent="QgCz3kuBdeEGVtZZMiBr-24">
          <mxGeometry width="60" height="23" as="geometry">
            <mxRectangle width="60" height="23" as="alternateBounds" />
          </mxGeometry>
        </mxCell>
        <mxCell id="QgCz3kuBdeEGVtZZMiBr-26" value="" style="shape=tableRow;horizontal=0;startSize=0;swimlaneHead=0;swimlaneBody=0;strokeColor=inherit;top=0;left=0;bottom=0;right=0;collapsible=0;dropTarget=0;fillColor=none;points=[[0,0.5],[1,0.5]];portConstraint=eastwest;fontSize=16;" vertex="1" parent="QgCz3kuBdeEGVtZZMiBr-23">
          <mxGeometry y="23" width="60" height="22" as="geometry" />
        </mxCell>
        <mxCell id="QgCz3kuBdeEGVtZZMiBr-27" value="Feed 2" style="shape=partialRectangle;html=1;whiteSpace=wrap;connectable=0;strokeColor=inherit;overflow=hidden;fillColor=none;top=0;left=0;bottom=0;right=0;pointerEvents=1;fontSize=12;align=left;spacingLeft=5;" vertex="1" parent="QgCz3kuBdeEGVtZZMiBr-26">
          <mxGeometry width="60" height="22" as="geometry">
            <mxRectangle width="60" height="22" as="alternateBounds" />
          </mxGeometry>
        </mxCell>
        <mxCell id="QgCz3kuBdeEGVtZZMiBr-28" value="" style="shape=tableRow;horizontal=0;startSize=0;swimlaneHead=0;swimlaneBody=0;strokeColor=inherit;top=0;left=0;bottom=0;right=0;collapsible=0;dropTarget=0;fillColor=none;points=[[0,0.5],[1,0.5]];portConstraint=eastwest;fontSize=16;" vertex="1" parent="QgCz3kuBdeEGVtZZMiBr-23">
          <mxGeometry y="45" width="60" height="23" as="geometry" />
        </mxCell>
        <mxCell id="QgCz3kuBdeEGVtZZMiBr-29" value="Feed 3" style="shape=partialRectangle;html=1;whiteSpace=wrap;connectable=0;strokeColor=inherit;overflow=hidden;fillColor=none;top=0;left=0;bottom=0;right=0;pointerEvents=1;fontSize=12;align=left;spacingLeft=5;" vertex="1" parent="QgCz3kuBdeEGVtZZMiBr-28">
          <mxGeometry width="60" height="23" as="geometry">
            <mxRectangle width="60" height="23" as="alternateBounds" />
          </mxGeometry>
        </mxCell>
        <mxCell id="QgCz3kuBdeEGVtZZMiBr-30" style="shape=tableRow;horizontal=0;startSize=0;swimlaneHead=0;swimlaneBody=0;strokeColor=inherit;top=0;left=0;bottom=0;right=0;collapsible=0;dropTarget=0;fillColor=none;points=[[0,0.5],[1,0.5]];portConstraint=eastwest;fontSize=16;" vertex="1" parent="QgCz3kuBdeEGVtZZMiBr-23">
          <mxGeometry y="68" width="60" height="22" as="geometry" />
        </mxCell>
        <mxCell id="QgCz3kuBdeEGVtZZMiBr-31" value="Feed 4" style="shape=partialRectangle;html=1;whiteSpace=wrap;connectable=0;strokeColor=inherit;overflow=hidden;fillColor=none;top=0;left=0;bottom=0;right=0;pointerEvents=1;fontSize=12;align=left;spacingLeft=5;" vertex="1" parent="QgCz3kuBdeEGVtZZMiBr-30">
          <mxGeometry width="60" height="22" as="geometry">
            <mxRectangle width="60" height="22" as="alternateBounds" />
          </mxGeometry>
        </mxCell>
        <mxCell id="QgCz3kuBdeEGVtZZMiBr-79" value="" style="group" vertex="1" connectable="0" parent="1">
          <mxGeometry x="440" y="440" width="128.30999999999995" height="30.75" as="geometry" />
        </mxCell>
        <mxCell id="QgCz3kuBdeEGVtZZMiBr-12" value="&lt;font&gt;Readr&lt;/font&gt;" style="text;html=1;align=center;verticalAlign=middle;resizable=0;points=[];autosize=1;strokeColor=none;fillColor=none;fontColor=#00FFFF;" vertex="1" parent="QgCz3kuBdeEGVtZZMiBr-79">
          <mxGeometry width="60" height="30" as="geometry" />
        </mxCell>
        <mxCell id="QgCz3kuBdeEGVtZZMiBr-13" value="Menu" style="rounded=0;whiteSpace=wrap;html=1;fillColor=#d5e8d4;strokeColor=none;gradientColor=#97d077;" vertex="1" parent="QgCz3kuBdeEGVtZZMiBr-79">
          <mxGeometry x="80" y="5" width="40" height="20" as="geometry" />
        </mxCell>
        <mxCell id="QgCz3kuBdeEGVtZZMiBr-14" value="" style="endArrow=none;html=1;rounded=0;exitX=0.002;exitY=0.14;exitDx=0;exitDy=0;exitPerimeter=0;entryX=0.989;entryY=0.143;entryDx=0;entryDy=0;entryPerimeter=0;" edge="1" parent="QgCz3kuBdeEGVtZZMiBr-79">
          <mxGeometry width="50" height="50" relative="1" as="geometry">
            <mxPoint y="30" as="sourcePoint" />
            <mxPoint x="128.30999999999995" y="30.75" as="targetPoint" />
          </mxGeometry>
        </mxCell>
        <mxCell id="QgCz3kuBdeEGVtZZMiBr-80" value="" style="group" vertex="1" connectable="0" parent="1">
          <mxGeometry x="22.5" y="390" width="128.30999999999995" height="30.75" as="geometry" />
        </mxCell>
        <mxCell id="QgCz3kuBdeEGVtZZMiBr-49" value="&lt;font&gt;Readr&lt;/font&gt;" style="text;html=1;align=center;verticalAlign=middle;resizable=0;points=[];autosize=1;strokeColor=none;fillColor=none;fontColor=#00FFFF;" vertex="1" parent="QgCz3kuBdeEGVtZZMiBr-80">
          <mxGeometry width="60" height="30" as="geometry" />
        </mxCell>
        <mxCell id="QgCz3kuBdeEGVtZZMiBr-50" value="Menu" style="rounded=0;whiteSpace=wrap;html=1;fillColor=#d5e8d4;strokeColor=none;gradientColor=#97d077;" vertex="1" parent="QgCz3kuBdeEGVtZZMiBr-80">
          <mxGeometry x="80" y="5" width="40" height="20" as="geometry" />
        </mxCell>
        <mxCell id="QgCz3kuBdeEGVtZZMiBr-51" value="" style="endArrow=none;html=1;rounded=0;exitX=0.002;exitY=0.14;exitDx=0;exitDy=0;exitPerimeter=0;entryX=0.989;entryY=0.143;entryDx=0;entryDy=0;entryPerimeter=0;" edge="1" parent="QgCz3kuBdeEGVtZZMiBr-80">
          <mxGeometry width="50" height="50" relative="1" as="geometry">
            <mxPoint y="30" as="sourcePoint" />
            <mxPoint x="128.30999999999995" y="30.75" as="targetPoint" />
          </mxGeometry>
        </mxCell>
        <mxCell id="QgCz3kuBdeEGVtZZMiBr-81" value="&lt;h1&gt;Color code&lt;/h1&gt;" style="text;html=1;align=center;verticalAlign=middle;resizable=0;points=[];autosize=1;strokeColor=none;fillColor=none;" vertex="1" parent="1">
          <mxGeometry x="19.28" y="840" width="150" height="70" as="geometry" />
        </mxCell>
        <mxCell id="QgCz3kuBdeEGVtZZMiBr-82" value="&lt;font color=&quot;#660033&quot;&gt;Modules&lt;/font&gt;&lt;div&gt;&lt;br&gt;&lt;/div&gt;&lt;div&gt;datas&lt;/div&gt;" style="rounded=1;whiteSpace=wrap;html=1;fillColor=#e1d5e7;strokeColor=#9673a6;" vertex="1" parent="1">
          <mxGeometry x="30" y="900" width="80" height="60" as="geometry" />
        </mxCell>
        <mxCell id="QgCz3kuBdeEGVtZZMiBr-95" value="buttons&lt;div&gt;/ inputs&lt;/div&gt;" style="rounded=1;whiteSpace=wrap;html=1;fillColor=#d5e8d4;gradientColor=#97d077;strokeColor=none;" vertex="1" parent="1">
          <mxGeometry x="230" y="900" width="70" height="30" as="geometry" />
        </mxCell>
        <mxCell id="QgCz3kuBdeEGVtZZMiBr-92" value="&lt;h3&gt;Pop-up&lt;/h3&gt;&lt;div&gt;&lt;br&gt;&lt;/div&gt;" style="whiteSpace=wrap;html=1;aspect=fixed;fillColor=#d5e8d4;strokeColor=#82b366;" vertex="1" parent="1">
          <mxGeometry x="142" y="900" width="60" height="60" as="geometry" />
        </mxCell>
        <mxCell id="QgCz3kuBdeEGVtZZMiBr-97" value="&lt;font color=&quot;#0066cc&quot; face=&quot;Courier New&quot;&gt;Page name&lt;/font&gt;" style="text;html=1;align=center;verticalAlign=middle;resizable=0;points=[];autosize=1;strokeColor=none;fillColor=none;fontFamily=Courier New;labelBackgroundColor=none;" vertex="1" parent="1">
          <mxGeometry x="19.28" y="990" width="90" height="30" as="geometry" />
        </mxCell>
      </root>
    </mxGraphModel>
  </diagram>
</mxfile>
